<svg xmlns="http://www.w3.org/2000/svg" xmlns:xlink="http://www.w3.org/1999/xlink" viewBox="0 0 419.36 286.19"><defs><style>.cls-1{font-size:66.32px;font-family:Montserrat-Bold, Montserrat;font-weight:700;}.cls-1,.cls-3{fill:#0980b6;}.cls-2{letter-spacing:-0.01em;}.cls-3{font-size:59.62px;font-family:Montserrat-Medium, Montserrat;font-weight:500;}.cls-4{letter-spacing:-0.03em;}.cls-5{letter-spacing:-0.01em;}.cls-6{letter-spacing:0em;}.cls-7{letter-spacing:-0.06em;}.cls-8{letter-spacing:-0.03em;}.cls-9{letter-spacing:-0.01em;}.cls-10{letter-spacing:-0.02em;}.cls-11{fill:url(#Degradado_sin_nombre_2);}</style><linearGradient id="Degradado_sin_nombre_2" x1="47.7" y1="71.1" x2="373.2" y2="71.1" gradientUnits="userSpaceOnUse"><stop offset="0" stop-color="#004a77"/><stop offset="0.13" stop-color="#0c5a8a"/><stop offset="0.35" stop-color="#1c71a3"/><stop offset="0.48" stop-color="#2279ad"/><stop offset="0.78" stop-color="#29948a"/><stop offset="0.99" stop-color="#2ea970"/><stop offset="1" stop-color="#2ea970"/></linearGradient></defs><g id="Capa_2" data-name="Capa 2"><g id="Capa_1-2" data-name="Capa 1"><text class="cls-1" transform="translate(1.97 217.01)">UNI<tspan class="cls-2" x="127.59" y="0">D</tspan><tspan x="181.71" y="0">AD TIC</tspan></text><text class="cls-3" transform="translate(0 270.51)"><tspan class="cls-4">F</tspan><tspan class="cls-5" x="35.95" y="0">A</tspan><tspan class="cls-6" x="79" y="0">C</tspan><tspan x="121.92" y="0">U</tspan><tspan class="cls-7" x="169.08" y="0">L</tspan><tspan class="cls-8" x="200.62" y="0">TA</tspan><tspan x="275.08" y="0">T</tspan><tspan class="cls-9" x="310.08" y="0">I</tspan><tspan class="cls-10" x="328.15" y="0">V</tspan><tspan x="369.28" y="0">O</tspan></text><path d="M188.24,142.2H167.91V52.39h20.33Z"/><path d="M373.2,142.2H281.68a63.59,63.59,0,0,1-26.88-5.56,61.92,61.92,0,0,1-20.67-15.17,68.13,68.13,0,0,1-13.24-22.61,81.5,81.5,0,0,1-4.66-27.76,80.86,80.86,0,0,1,4.66-27.62,69,69,0,0,1,13.24-22.61A62.47,62.47,0,0,1,254.8,5.6,63.3,63.3,0,0,1,281.68,0H373.2V20.33H281.68a43.24,43.24,0,0,0-18.89,4,42,42,0,0,0-14.18,10.91,49.46,49.46,0,0,0-8.93,16.12,61.11,61.11,0,0,0-3.12,19.73,61.59,61.59,0,0,0,3.12,19.78A49.25,49.25,0,0,0,248.61,107a41.26,41.26,0,0,0,14.18,10.86,43.51,43.51,0,0,0,18.89,4H373.2Z"/><path d="M220.18,8.5A61.1,61.1,0,0,1,229.44,0H47.7V20.33h71.89V142.2h20.33V20.33h71.92A66.46,66.46,0,0,1,220.18,8.5Z"/><path class="cls-11" d="M188.24,142.2H167.91V52.39h20.33Z"/><path class="cls-11" d="M373.2,142.2H281.68a63.59,63.59,0,0,1-26.88-5.56,61.92,61.92,0,0,1-20.67-15.17,68.13,68.13,0,0,1-13.24-22.61,81.5,81.5,0,0,1-4.66-27.76,80.86,80.86,0,0,1,4.66-27.62,69,69,0,0,1,13.24-22.61A62.47,62.47,0,0,1,254.8,5.6,63.3,63.3,0,0,1,281.68,0H373.2V20.33H281.68a43.24,43.24,0,0,0-18.89,4,42,42,0,0,0-14.18,10.91,49.46,49.46,0,0,0-8.93,16.12,61.11,61.11,0,0,0-3.12,19.73,61.59,61.59,0,0,0,3.12,19.78A49.25,49.25,0,0,0,248.61,107a41.26,41.26,0,0,0,14.18,10.86,43.51,43.51,0,0,0,18.89,4H373.2Z"/><path class="cls-11" d="M220.18,8.5A61.1,61.1,0,0,1,229.44,0H47.7V20.33h71.89V142.2h20.33V20.33h71.92A66.46,66.46,0,0,1,220.18,8.5Z"/></g></g></svg>